<svg id="Layer_1" data-name="Layer 1" xmlns="http://www.w3.org/2000/svg" viewBox="0 0 5000 3000"><defs><style>.cls-1{fill:#f1f2f2;}.cls-2{fill:#231f20;}.cls-3{fill:#101010;}</style></defs><title>AdobeStock_288443972 [Converted]</title><rect class="cls-1" width="5000" height="3000"/><rect class="cls-2" x="1881.18" y="1737.41" width="1237.63" height="7.17"/><path class="cls-2" d="M1963.48,1892.71V1866.3l-23-36.33h14.82l14.76,24.86,14.46-24.86h14.58l-23,36.45v26.29Z"/><path class="cls-2" d="M2039.33,1869.35a24.52,24.52,0,0,1,3-11.6,20.33,20.33,0,0,1,8.36-8.57,24.71,24.71,0,0,1,12-3q10.33,0,16.91,6.72t6.57,16.94a23.4,23.4,0,0,1-6.63,17.06,22.42,22.42,0,0,1-16.73,6.78,26.44,26.44,0,0,1-11.92-2.8,19.35,19.35,0,0,1-8.6-8.28A27.5,27.5,0,0,1,2039.33,1869.35Zm12.31.65q0,6.76,3.19,10.34a10.53,10.53,0,0,0,15.84,0q3.2-3.58,3.19-10.46,0-6.63-3.19-10.24a10.47,10.47,0,0,0-15.84,0Q2051.63,1863.26,2051.64,1870Z"/><path class="cls-2" d="M2162.26,1892.71v-6.81a17.6,17.6,0,0,1-6.54,5.73,18.19,18.19,0,0,1-8.52,2.09,16.78,16.78,0,0,1-8.24-2,11.73,11.73,0,0,1-5.26-5.64c-1.08-2.43-1.61-5.78-1.61-10V1847.3h12v20.85q0,9.55.65,11.74a6.36,6.36,0,0,0,2.42,3.44,7.55,7.55,0,0,0,4.46,1.25,9.38,9.38,0,0,0,5.52-1.7,8.71,8.71,0,0,0,3.32-4.18q.9-2.49.9-12.28V1847.3h12.07v45.41Z"/><path class="cls-2" d="M2234.11,1892.71h-12V1847.3h11.17v6.45c1.91-3.07,3.63-5.09,5.14-6.06a9.35,9.35,0,0,1,5.2-1.47,15.09,15.09,0,0,1,7.89,2.27l-3.71,10.52a10.54,10.54,0,0,0-5.68-2,6.66,6.66,0,0,0-4.24,1.37q-1.73,1.38-2.75,5t-1,15.24Z"/><path class="cls-2" d="M2354.86,1892.71v-62.2h12.66v51.62H2399v10.58Z"/><path class="cls-2" d="M2441.94,1869.35a24.52,24.52,0,0,1,3-11.6,20.33,20.33,0,0,1,8.36-8.57,24.71,24.71,0,0,1,12-3q10.34,0,16.91,6.72a25.17,25.17,0,0,1-.06,34,22.42,22.42,0,0,1-16.73,6.78,26.47,26.47,0,0,1-11.92-2.8,19.35,19.35,0,0,1-8.6-8.28A27.5,27.5,0,0,1,2441.94,1869.35Zm12.31.65q0,6.76,3.19,10.34a10.53,10.53,0,0,0,15.84,0q3.19-3.58,3.2-10.46,0-6.63-3.2-10.24a10.47,10.47,0,0,0-15.84,0Q2454.25,1863.26,2454.25,1870Z"/><path class="cls-2" d="M2533.86,1895.7l13.68,1.67a4.71,4.71,0,0,0,1.62,3.29,8.94,8.94,0,0,0,5.37,1.31q4.72,0,7.06-1.43a5.74,5.74,0,0,0,2.39-3,17.27,17.27,0,0,0,.59-5.5v-6.63q-5.37,7.35-13.62,7.35a16.81,16.81,0,0,1-14.52-7.77q-4.18-6.09-4.18-15.18,0-11.46,5.49-17.5a17.75,17.75,0,0,1,13.69-6q8.42,0,13.92,7.41v-6.33h11.23v40.75q0,8.07-1.31,12a14.63,14.63,0,0,1-3.74,6.24,16.6,16.6,0,0,1-6.42,3.56,33.79,33.79,0,0,1-10.1,1.28q-11.52,0-16.37-4a12.47,12.47,0,0,1-4.84-10.07C2533.8,1896.73,2533.82,1896.25,2533.86,1895.7Zm10.7-26.65q0,7.23,2.8,10.57a8.74,8.74,0,0,0,6.94,3.35,9.51,9.51,0,0,0,7.43-3.44q3-3.43,3-10.18,0-7-2.9-10.49a9.23,9.23,0,0,0-7.37-3.44,8.89,8.89,0,0,0-7.12,3.38Q2544.55,1862.18,2544.56,1869.05Z"/><path class="cls-2" d="M2622.44,1869.35a24.52,24.52,0,0,1,3-11.6,20.33,20.33,0,0,1,8.36-8.57,24.71,24.71,0,0,1,12-3q10.34,0,16.91,6.72t6.57,16.94a23.4,23.4,0,0,1-6.63,17.06,22.42,22.42,0,0,1-16.73,6.78,26.44,26.44,0,0,1-11.92-2.8,19.35,19.35,0,0,1-8.6-8.28A27.5,27.5,0,0,1,2622.44,1869.35Zm12.31.65q0,6.76,3.19,10.34a10.53,10.53,0,0,0,15.84,0q3.19-3.58,3.19-10.46,0-6.63-3.19-10.24a10.47,10.47,0,0,0-15.84,0Q2634.75,1863.26,2634.75,1870Z"/><path class="cls-2" d="M2790.69,1892.71V1840.6h-18.58V1830h49.83v10.63h-18.58v52.11Z"/><path class="cls-2" d="M2893.07,1878.25l11.95,2a19.79,19.79,0,0,1-7.29,10q-5,3.43-12.49,3.43-11.84,0-17.51-7.7-4.47-6.23-4.48-15.66,0-11.29,5.89-17.72a19.34,19.34,0,0,1,14.91-6.42q10.15,0,15.95,6.72t5.8,20.53h-30.24q.12,5.31,2.9,8.3a9,9,0,0,0,6.9,3,7.3,7.3,0,0,0,4.78-1.55A9.88,9.88,0,0,0,2893.07,1878.25Zm.66-12.13c-.08-3.51-1-6.16-2.69-8a8.65,8.65,0,0,0-12.73.15,11.31,11.31,0,0,0-2.57,7.83Z"/><path class="cls-2" d="M2946.45,1892.71l16.37-23.42-15.71-22h14.7l8,12.49,8.49-12.49h14.1L2977,1868.81l16.79,23.9h-14.75l-9.27-14.1-9.32,14.1Z"/><path class="cls-2" d="M3058.51,1847.3v9.56h-8.25v18.28a44.52,44.52,0,0,0,.24,6.51,2.66,2.66,0,0,0,1.08,1.5,3.39,3.39,0,0,0,2,.6,15.7,15.7,0,0,0,4.84-1.14l1,9.32a23.84,23.84,0,0,1-9.5,1.79,15.07,15.07,0,0,1-5.83-1.07,8.46,8.46,0,0,1-3.82-2.81,11.16,11.16,0,0,1-1.71-4.72,62.27,62.27,0,0,1-.36-8.48v-19.78h-5.55v-9.56h5.55v-9l12-7v16.08Z"/><path class="cls-2" d="M2077.19,2016.43v-20.36l-18.54-27.69h7.74l9.47,14.51q2.61,4.06,4.9,8.1,2.14-3.75,5.21-8.47l9.34-14.14h7.41l-19.17,27.69v20.36Z"/><path class="cls-2" d="M2124.21,1999q0-9.64,5.36-14.32a16.1,16.1,0,0,1,10.93-3.89,15.62,15.62,0,0,1,11.74,4.71q4.55,4.73,4.55,13,0,6.72-2,10.57a14.29,14.29,0,0,1-5.86,6,17.08,17.08,0,0,1-8.42,2.13,15.58,15.58,0,0,1-11.78-4.69Q2124.21,2007.83,2124.21,1999Zm6,0q0,6.69,2.93,10a9.71,9.71,0,0,0,14.64,0q2.94-3.35,2.93-10.16,0-6.49-2.95-9.82a9.73,9.73,0,0,0-14.62,0Q2130.26,1992.37,2130.25,1999Z"/><path class="cls-2" d="M2205.28,2016.43v-5.12a12.74,12.74,0,0,1-11,5.9,14.12,14.12,0,0,1-5.76-1.17,9.5,9.5,0,0,1-4-3,10.85,10.85,0,0,1-1.81-4.39,29.7,29.7,0,0,1-.37-5.49v-21.56h5.91v19.27a34.35,34.35,0,0,0,.36,6.22,6.15,6.15,0,0,0,2.34,3.66,7.2,7.2,0,0,0,4.44,1.33,9.75,9.75,0,0,0,5-1.35,7.47,7.47,0,0,0,3.3-3.71,18.71,18.71,0,0,0,1-6.79v-18.63h5.9v34.78Z"/><path class="cls-2" d="M2238.49,2016.43v-34.78h5.3v5.27a14.81,14.81,0,0,1,3.78-4.9,6.49,6.49,0,0,1,3.77-1.19,11.31,11.31,0,0,1,6,1.92l-2,5.49A8.44,8.44,0,0,0,2251,1987a5.58,5.58,0,0,0-3.45,1.15,6.08,6.08,0,0,0-2.17,3.24,22,22,0,0,0-1,6.87v18.21Z"/><path class="cls-2" d="M2330,2016.43v-42.37h-15.83v-5.68h38.07v5.68h-15.88v42.37Z"/><path class="cls-2" d="M2399.46,2012.13a22.28,22.28,0,0,1-6.31,3.94,18.28,18.28,0,0,1-6.5,1.14q-5.71,0-8.81-2.79a9.19,9.19,0,0,1-3.09-7.14,9.82,9.82,0,0,1,4.21-8.1,14,14,0,0,1,4.26-1.92,39.64,39.64,0,0,1,5.21-.87,54.48,54.48,0,0,0,10.53-2.06c0-.79.05-1.3.05-1.51q0-3.61-1.7-5.08-2.23-2-6.68-2c-2.78,0-4.83.48-6.15,1.46s-2.31,2.7-3,5.17l-5.76-.78a14.3,14.3,0,0,1,2.58-6,11.37,11.37,0,0,1,5.22-3.52,22.93,22.93,0,0,1,7.89-1.24,20.89,20.89,0,0,1,7.26,1.05,9.6,9.6,0,0,1,4.09,2.66,8.94,8.94,0,0,1,1.83,4,34.75,34.75,0,0,1,.28,5.45v7.82a80.58,80.58,0,0,0,.39,10.41,13.81,13.81,0,0,0,1.48,4.19h-6.13A12.84,12.84,0,0,1,2399.46,2012.13ZM2399,1999a42.07,42.07,0,0,1-9.61,2.24,24.5,24.5,0,0,0-5.17,1.19,5.11,5.11,0,0,0-1.35,8.63,7.74,7.74,0,0,0,5.24,1.58,12.15,12.15,0,0,0,6-1.49,9.15,9.15,0,0,0,3.89-4,14.18,14.18,0,0,0,1-5.9Z"/><path class="cls-2" d="M2431.75,2019.31l5.72.87a5.43,5.43,0,0,0,2,3.85,9.75,9.75,0,0,0,6,1.64,10.48,10.48,0,0,0,6.34-1.64,8.11,8.11,0,0,0,3-4.58,38.31,38.31,0,0,0,.41-7.59,12,12,0,0,1-9.61,4.57q-7.18,0-11.12-5.17a19.85,19.85,0,0,1-3.94-12.4,23,23,0,0,1,1.81-9.2,14.53,14.53,0,0,1,5.24-6.52,14.07,14.07,0,0,1,8-2.31,12.5,12.5,0,0,1,10.16,5v-4.17h5.4v30.07q0,8.1-1.65,11.51a12,12,0,0,1-5.23,5.37,18.07,18.07,0,0,1-8.81,2q-6.22,0-10.07-2.81T2431.75,2019.31Zm4.9-20.91q0,6.87,2.72,10a8.64,8.64,0,0,0,6.8,3.13,8.73,8.73,0,0,0,6.82-3.11q2.75-3.11,2.74-9.83,0-6.37-2.84-9.62a8.75,8.75,0,0,0-6.81-3.24,8.48,8.48,0,0,0-6.69,3.2Q2436.65,1992.14,2436.65,1998.4Z"/><path class="cls-2" d="M2486.65,2002v-6h18.07v6Z"/><path class="cls-2" d="M2529.87,2016.43v-48h5.91v48Z"/><path class="cls-2" d="M2563.67,1975.2v-6.82h5.91v6.82Zm0,41.23v-34.78h5.91v34.78Z"/><path class="cls-2" d="M2597.33,2016.43v-34.78h5.31v4.95a12.43,12.43,0,0,1,11.08-5.77,14.44,14.44,0,0,1,5.76,1.14,9.22,9.22,0,0,1,4,3,11.22,11.22,0,0,1,1.81,4.35,30.67,30.67,0,0,1,.36,5.72v21.41h-5.9v-21.19a15.67,15.67,0,0,0-.69-5.35,5.68,5.68,0,0,0-2.44-2.86,7.8,7.8,0,0,0-4.15-1.07,9.45,9.45,0,0,0-6.47,2.4c-1.82,1.6-2.72,4.63-2.72,9.08v19Z"/><path class="cls-2" d="M2677.21,2005.22l6.09.78a14.75,14.75,0,0,1-5.33,8.26,16.06,16.06,0,0,1-9.95,3q-7.65,0-12.11-4.69t-4.46-13.2q0-8.79,4.51-13.64a15.28,15.28,0,0,1,11.74-4.85,14.9,14.9,0,0,1,11.39,4.76q4.44,4.76,4.44,13.36c0,.37,0,.9-.05,1.6h-25.94c.21,3.82,1.29,6.74,3.22,8.77a9.7,9.7,0,0,0,7.3,3,9,9,0,0,0,5.54-1.69A11.2,11.2,0,0,0,2677.21,2005.22Zm-19.35-9.52h19.45a12,12,0,0,0-2.25-6.59,9.05,9.05,0,0,0-7.32-3.43,9.41,9.41,0,0,0-6.84,2.72A10.7,10.7,0,0,0,2657.86,1995.7Z"/><path class="cls-2" d="M2747.79,2016.43v-48h6.36v19.73h25v-19.73h6.36v48h-6.36v-22.65h-25v22.65Z"/><path class="cls-2" d="M2837.87,2005.22l6.09.78a14.8,14.8,0,0,1-5.33,8.26,16.07,16.07,0,0,1-10,3q-7.64,0-12.1-4.69t-4.46-13.2q0-8.79,4.51-13.64a15.27,15.27,0,0,1,11.73-4.85,14.9,14.9,0,0,1,11.4,4.76q4.44,4.76,4.44,13.36c0,.37,0,.9-.05,1.6h-25.95q.33,5.73,3.23,8.77a9.7,9.7,0,0,0,7.3,3,9,9,0,0,0,5.54-1.69A11.2,11.2,0,0,0,2837.87,2005.22Zm-19.36-9.52H2838a11.9,11.9,0,0,0-2.24-6.59,9.05,9.05,0,0,0-7.32-3.43,9.37,9.37,0,0,0-6.84,2.72A10.76,10.76,0,0,0,2818.51,1995.7Z"/><path class="cls-2" d="M2870.07,2016.43v-34.78h5.31v5.27a14.81,14.81,0,0,1,3.77-4.9,6.54,6.54,0,0,1,3.78-1.19,11.36,11.36,0,0,1,6,1.92l-2,5.49a8.49,8.49,0,0,0-4.35-1.28,5.61,5.61,0,0,0-3.46,1.15,6.14,6.14,0,0,0-2.17,3.24,22.31,22.31,0,0,0-1,6.87v18.21Z"/><path class="cls-2" d="M2935,2005.22l6.09.78a14.8,14.8,0,0,1-5.33,8.26,16.07,16.07,0,0,1-10,3q-7.64,0-12.1-4.69t-4.46-13.2q0-8.79,4.51-13.64a15.27,15.27,0,0,1,11.73-4.85,14.9,14.9,0,0,1,11.4,4.76q4.44,4.76,4.44,13.36c0,.37,0,.9,0,1.6h-26q.33,5.73,3.23,8.77a9.7,9.7,0,0,0,7.3,3,9,9,0,0,0,5.54-1.69A11.2,11.2,0,0,0,2935,2005.22Zm-19.36-9.52h19.45a11.9,11.9,0,0,0-2.24-6.59,9.05,9.05,0,0,0-7.32-3.43,9.37,9.37,0,0,0-6.84,2.72A10.76,10.76,0,0,0,2915.67,1995.7Z"/><path class="cls-3" d="M2735.89,1686.77h-74.15l-246.65-467.09-245,467.09h-76.17L2376,1149.55v-.4l39.5-73,36.27,68.92Z"/><path class="cls-3" d="M2794.07,1266.35q29.82-19.74,29.82-76.57,0-60-50-90.28-35.88-22.56-81-22.57H2442.55l30.33,57.63,30.62,58.37v-52.32h189.41a96.15,96.15,0,0,1,37.48,7.25q29.42,12.5,29.42,41.92a44.9,44.9,0,0,1-9.67,26.6q-16.12,21.75-56.82,21.76H2527.21l32.56,62.06h118.64q43.52,0,85,20.56,79,39.49,79,136.22t-79,136.21a203.3,203.3,0,0,1-42,15.26L2750.6,1664a299.11,299.11,0,0,0,41.86-16.8q113.65-54.81,113.65-190.22Q2906.11,1311.5,2794.07,1266.35Z"/></svg>