<svg id="Layer_1" data-name="Layer 1" xmlns="http://www.w3.org/2000/svg" xmlns:xlink="http://www.w3.org/1999/xlink" viewBox="0 0 1080 1080"><defs><style>.cls-1{opacity:0.07;fill:url(#radial-gradient);}.cls-2{fill:#333;}</style><radialGradient id="radial-gradient" cx="540" cy="540" r="540" gradientUnits="userSpaceOnUse"><stop offset="0" stop-color="#fff"/><stop offset="0.19" stop-color="#fcfcfc"/><stop offset="0.32" stop-color="#f3f3f3"/><stop offset="0.44" stop-color="#e3e3e3"/><stop offset="0.54" stop-color="#cdcdcd"/><stop offset="0.64" stop-color="#b1b1b1"/><stop offset="0.74" stop-color="#8e8e8e"/><stop offset="0.83" stop-color="#646464"/><stop offset="0.92" stop-color="#353535"/><stop offset="1"/></radialGradient></defs><title>AlsLogo1</title><rect class="cls-1" width="1080" height="1080"/><path d="M357,783.25l5.11,1.29a17.2,17.2,0,0,1-5.79,9.61,15.9,15.9,0,0,1-10.21,3.31,18.42,18.42,0,0,1-10.17-2.54,15.93,15.93,0,0,1-6-7.37,26.39,26.39,0,0,1-2-10.37,22.76,22.76,0,0,1,2.31-10.53,15.75,15.75,0,0,1,6.56-6.83,19.13,19.13,0,0,1,9.38-2.33,15.84,15.84,0,0,1,9.75,3,15.34,15.34,0,0,1,5.51,8.31l-5,1.18a11.93,11.93,0,0,0-3.91-6.14,10.41,10.41,0,0,0-6.43-1.93,12.54,12.54,0,0,0-7.45,2.14,11.26,11.26,0,0,0-4.2,5.73,23.1,23.1,0,0,0-1.22,7.43,23.61,23.61,0,0,0,1.44,8.61,10.7,10.7,0,0,0,4.47,5.49,12.46,12.46,0,0,0,6.56,1.82A11,11,0,0,0,353,790.6,12.69,12.69,0,0,0,357,783.25Z" transform="translate(0 -2)"/><path d="M366.85,778q0-9.62,5.17-15.06a17.56,17.56,0,0,1,13.34-5.45A18.47,18.47,0,0,1,395,760a16.68,16.68,0,0,1,6.55,7.13,23.21,23.21,0,0,1,2.25,10.38,22.82,22.82,0,0,1-2.37,10.52,16.18,16.18,0,0,1-6.72,7,19.23,19.23,0,0,1-9.39,2.39,18.28,18.28,0,0,1-9.76-2.64,16.92,16.92,0,0,1-6.51-7.2A21.87,21.87,0,0,1,366.85,778Zm5.27.08q0,7,3.76,11a13.11,13.11,0,0,0,18.93,0c2.49-2.7,3.73-6.55,3.73-11.52a19.86,19.86,0,0,0-1.59-8.24,12.27,12.27,0,0,0-4.67-5.46,12.69,12.69,0,0,0-6.9-1.94,13.09,13.09,0,0,0-9.34,3.73Q372.13,769.33,372.12,778.05Z" transform="translate(0 -2)"/><path d="M410.25,796.8V758.15H418l9.15,27.37c.84,2.54,1.46,4.45,1.84,5.72.44-1.41,1.13-3.47,2.06-6.2l9.25-26.89h6.89V796.8H442.2V764.45L431,796.8h-4.61l-11.18-32.91V796.8Z" transform="translate(0 -2)"/><path d="M455.39,796.8V758.15H470a34.71,34.71,0,0,1,5.88.37,11.49,11.49,0,0,1,4.77,1.8,9.5,9.5,0,0,1,3.1,3.73,12.61,12.61,0,0,1-2,13.62q-3.15,3.42-11.34,3.42H460.5V796.8Zm5.11-20.28h10q5,0,7-1.84a6.57,6.57,0,0,0,2.08-5.2,7,7,0,0,0-1.23-4.15,5.7,5.7,0,0,0-3.23-2.28,21.78,21.78,0,0,0-4.77-.34H460.5Z" transform="translate(0 -2)"/><path d="M483.15,796.8,498,758.15h5.51l15.82,38.65H513.5L509,785.09H492.83l-4.25,11.71Zm11.16-15.87h13.1l-4-10.71q-1.85-4.87-2.75-8a48.4,48.4,0,0,1-2.08,7.38Z" transform="translate(0 -2)"/><path d="M523.36,796.8V758.15h5.25l20.3,30.34V758.15h4.91V796.8h-5.25l-20.3-30.37V796.8Z" transform="translate(0 -2)"/><path d="M573.3,796.8V780.43l-14.9-22.28h6.23l7.62,11.65q2.1,3.27,3.93,6.54c1.16-2,2.56-4.3,4.22-6.83l7.48-11.36h6l-15.42,22.28V796.8Z" transform="translate(0 -2)"/><path d="M612.4,796.8V758.15h5.25L638,788.49V758.15h4.91V796.8h-5.25l-20.3-30.37V796.8Z" transform="translate(0 -2)"/><path d="M647.21,796.8l14.84-38.65h5.51l15.83,38.65h-5.83l-4.51-11.71H656.89l-4.25,11.71Zm11.15-15.87h13.11l-4-10.71q-1.84-4.87-2.74-8a49.58,49.58,0,0,1-2.08,7.38Z" transform="translate(0 -2)"/><path d="M687.31,796.8V758.15H695l9.15,27.37c.85,2.54,1.46,4.45,1.85,5.72.44-1.41,1.12-3.47,2-6.2l9.26-26.89h6.88V796.8h-4.93V764.45L708,796.8h-4.62l-11.18-32.91V796.8Z" transform="translate(0 -2)"/><path d="M732.56,796.8V758.15h28v4.56H737.68v11.84h21.38v4.53H737.68v13.16h23.73v4.56Z" transform="translate(0 -2)"/><path d="M377.79,837.36v-7l-6.41-9.58h2.68l3.28,5c.6.94,1.16,1.87,1.69,2.81.49-.87,1.1-1.85,1.81-2.93l3.22-4.89h2.56L380,830.32v7Z" transform="translate(0 -2)"/><path d="M394,829.26a9,9,0,0,1,2.22-6.47,7.52,7.52,0,0,1,5.74-2.35,8,8,0,0,1,4.15,1.1,7.19,7.19,0,0,1,2.81,3.07,9.91,9.91,0,0,1,1,4.46,9.81,9.81,0,0,1-1,4.53,7,7,0,0,1-2.89,3,8.27,8.27,0,0,1-4,1,7.82,7.82,0,0,1-4.2-1.13,7.36,7.36,0,0,1-2.8-3.1A9.42,9.42,0,0,1,394,829.26Zm2.27,0a6.63,6.63,0,0,0,1.61,4.73,5.64,5.64,0,0,0,8.14,0,7.08,7.08,0,0,0,1.61-5,8.47,8.47,0,0,0-.69-3.54,5.32,5.32,0,0,0-2-2.35,5.4,5.4,0,0,0-3-.83,5.61,5.61,0,0,0-4,1.6Q396.23,825.55,396.23,829.3Z" transform="translate(0 -2)"/><path d="M430.05,820.74h2.2v9.6a11.3,11.3,0,0,1-.57,4,4.89,4.89,0,0,1-2.05,2.4,7.19,7.19,0,0,1-3.88.92,7.93,7.93,0,0,1-3.82-.8,4.58,4.58,0,0,1-2.12-2.33,11.19,11.19,0,0,1-.64-4.17v-9.6h2.2v9.59a9.26,9.26,0,0,0,.41,3.19,3,3,0,0,0,1.38,1.58,4.79,4.79,0,0,0,2.4.56,4.57,4.57,0,0,0,3.45-1.1c.69-.73,1-2.14,1-4.23Z" transform="translate(0 -2)"/><path d="M442.39,837.36V820.74h7.37a9.78,9.78,0,0,1,3.38.45,3.68,3.68,0,0,1,1.85,1.58,4.7,4.7,0,0,1,.69,2.5,4.21,4.21,0,0,1-1.14,3A5.89,5.89,0,0,1,451,829.8a5.69,5.69,0,0,1,1.33.83,10.9,10.9,0,0,1,1.82,2.21l2.89,4.52h-2.76l-2.2-3.46c-.65-1-1.18-1.76-1.59-2.29a5,5,0,0,0-1.12-1.11,3.25,3.25,0,0,0-1-.44,6.92,6.92,0,0,0-1.23-.08h-2.55v7.38Zm2.2-9.29h4.73a7,7,0,0,0,2.36-.31,2.47,2.47,0,0,0,1.29-1,2.63,2.63,0,0,0,.44-1.49,2.49,2.49,0,0,0-.85-1.94,4,4,0,0,0-2.71-.75h-5.26Z" transform="translate(0 -2)"/><path d="M477.73,832l2.08-.18a4.68,4.68,0,0,0,.68,2,3.72,3.72,0,0,0,1.68,1.3,6.27,6.27,0,0,0,2.55.49,6.08,6.08,0,0,0,2.22-.37,3,3,0,0,0,1.43-1,2.33,2.33,0,0,0,.47-1.42,2.19,2.19,0,0,0-.45-1.37,3.29,3.29,0,0,0-1.5-1c-.44-.17-1.43-.44-2.95-.81a14.91,14.91,0,0,1-3.21-1A4.41,4.41,0,0,1,479,827.1a3.75,3.75,0,0,1-.58-2.06,4.29,4.29,0,0,1,.71-2.36,4.43,4.43,0,0,1,2.09-1.66,7.85,7.85,0,0,1,3.05-.56,8.28,8.28,0,0,1,3.26.59,4.74,4.74,0,0,1,2.17,1.75,5,5,0,0,1,.82,2.62l-2.11.16a3.45,3.45,0,0,0-1.15-2.38,4.48,4.48,0,0,0-2.9-.81,4.64,4.64,0,0,0-2.91.74,2.17,2.17,0,0,0-.91,1.76,1.84,1.84,0,0,0,.65,1.47,8.66,8.66,0,0,0,3.31,1.19,21.53,21.53,0,0,1,3.68,1.06,5,5,0,0,1,2.14,1.69,4.16,4.16,0,0,1,.7,2.37,4.6,4.6,0,0,1-.76,2.5A5,5,0,0,1,488,837a7.5,7.5,0,0,1-3.2.65A9.74,9.74,0,0,1,481,837a5.25,5.25,0,0,1-2.39-2A5.61,5.61,0,0,1,477.73,832Z" transform="translate(0 -2)"/><path d="M500.33,837.36V820.74h2.2V835.4h8.19v2Z" transform="translate(0 -2)"/><path d="M518.26,829.26a9,9,0,0,1,2.22-6.47,7.52,7.52,0,0,1,5.73-2.35,8,8,0,0,1,4.15,1.1,7.16,7.16,0,0,1,2.82,3.07,9.91,9.91,0,0,1,1,4.46,9.81,9.81,0,0,1-1,4.53,7,7,0,0,1-2.89,3,8.3,8.3,0,0,1-4,1,7.81,7.81,0,0,1-4.19-1.13,7.3,7.3,0,0,1-2.8-3.1A9.28,9.28,0,0,1,518.26,829.26Zm2.26,0a6.64,6.64,0,0,0,1.62,4.73,5.64,5.64,0,0,0,8.14,0,7.08,7.08,0,0,0,1.6-5,8.63,8.63,0,0,0-.68-3.54,5.32,5.32,0,0,0-2-2.35,5.4,5.4,0,0,0-3-.83,5.61,5.61,0,0,0-4,1.6Q520.52,825.55,520.52,829.3Z" transform="translate(0 -2)"/><path d="M551.21,830.84v-2h7v6.17a12.48,12.48,0,0,1-3.35,1.94,9.82,9.82,0,0,1-3.54.65,9.45,9.45,0,0,1-4.45-1,6.91,6.91,0,0,1-3-3,9.54,9.54,0,0,1-1-4.43,10.23,10.23,0,0,1,1-4.53,6.72,6.72,0,0,1,2.92-3.12,9.14,9.14,0,0,1,4.38-1,8.65,8.65,0,0,1,3.26.58,5.39,5.39,0,0,1,2.29,1.63,7.23,7.23,0,0,1,1.26,2.72l-2,.54a6.05,6.05,0,0,0-.93-2,3.79,3.79,0,0,0-1.58-1.17,5.89,5.89,0,0,0-2.3-.43,6.64,6.64,0,0,0-2.6.46,4.86,4.86,0,0,0-1.78,1.2,5.77,5.77,0,0,0-1.05,1.65,8.75,8.75,0,0,0-.63,3.34,8.14,8.14,0,0,0,.76,3.72,4.89,4.89,0,0,0,2.23,2.22,6.84,6.84,0,0,0,3.11.73,7.34,7.34,0,0,0,2.79-.55,7.52,7.52,0,0,0,2.06-1.17v-3.1Z" transform="translate(0 -2)"/><path d="M564.84,837.36l6.39-16.62h2.37l6.8,16.62h-2.51l-1.94-5h-7l-1.82,5Zm4.8-6.83h5.63l-1.73-4.6c-.53-1.4-.92-2.55-1.18-3.45a20.41,20.41,0,0,1-.9,3.18Z" transform="translate(0 -2)"/><path d="M587.3,837.36V820.74h2.26l8.73,13v-13h2.11v16.62h-2.26l-8.73-13.06v13.06Z" transform="translate(0 -2)"/><path d="M623.52,837.36V820.74h2.2v6.82h8.64v-6.82h2.2v16.62h-2.2v-7.83h-8.64v7.83Z" transform="translate(0 -2)"/><path d="M646.71,837.36V820.74h12v2h-9.82v5.09h9.2v2h-9.2v5.66h10.21v2Z" transform="translate(0 -2)"/><path d="M668.64,837.36V820.74H676a9.78,9.78,0,0,1,3.38.45,3.68,3.68,0,0,1,1.85,1.58,4.7,4.7,0,0,1,.69,2.5,4.18,4.18,0,0,1-1.15,3,5.83,5.83,0,0,1-3.53,1.54,5.4,5.4,0,0,1,1.32.83,10.93,10.93,0,0,1,1.83,2.21l2.89,4.52h-2.77l-2.2-3.46c-.64-1-1.17-1.76-1.58-2.29a5,5,0,0,0-1.12-1.11,3.25,3.25,0,0,0-1-.44,6.92,6.92,0,0,0-1.23-.08h-2.55v7.38Zm2.2-9.29h4.73a7.09,7.09,0,0,0,2.36-.31,2.55,2.55,0,0,0,1.29-1,2.71,2.71,0,0,0,.44-1.49,2.49,2.49,0,0,0-.85-1.94,4.08,4.08,0,0,0-2.71-.75h-5.26Z" transform="translate(0 -2)"/><path d="M691.87,837.36V820.74h12v2h-9.82v5.09h9.2v2h-9.2v5.66h10.21v2Z" transform="translate(0 -2)"/><path class="cls-2" d="M515.83,723h0a18.29,18.29,0,0,1-18.08-18.5l.31-26.34-66.4-.76A134.52,134.52,0,0,1,297.78,542.89c0-74.18,60.35-134.52,134.52-134.52h.48c74.21,0,133.79,60.71,134.27,134.91a97.79,97.79,0,0,0,97.68,97h.36c28.63.54,52.78-8,69.77-24.63,18-17.63,27.78-44,27.55-74.09C762,488.44,717.3,445,664.13,445H585.46a22.85,22.85,0,0,1-22.85-22.59l-.47-40.86A18.29,18.29,0,0,1,580.22,363h0a18.29,18.29,0,0,1,18.5,18.08l.31,27.29h65.09C737.05,408.37,798.28,468,799,541c.39,40.26-13.32,76.14-38.51,100.84-23.46,23-55.48,35.13-92.74,35.13l-3.18,0c-74-.09-134.13-60.32-134.1-134.33,0-53.76-42.93-97.62-96.69-97.62h-.38c-53.89,0-98.49,43.08-99,97a98.14,98.14,0,0,0,97.51,98.9l80.33.91a22.85,22.85,0,0,1,22.59,23.12l-.47,40.07A18.29,18.29,0,0,1,515.83,723Z" transform="translate(0 -2)"/><circle class="cls-2" cx="433.5" cy="541.5" r="66.5"/><circle class="cls-2" cx="665.5" cy="541.5" r="66.5"/></svg>