<svg data-v-423bf9ae="" xmlns="http://www.w3.org/2000/svg" viewBox="0 0 423.7231488913139 163" class="iconAbove"><!----><!----><!----><g data-v-423bf9ae="" id="dcd5c15d-d205-46da-b2c6-003f23d81476" fill="black" transform="matrix(4.7732696533203125,0,0,4.7732696533203125,-0.8114585876464844,86.48448181152344)"><path d="M1.16 13.50L2.37 10.40L6.44 10.40L7.64 13.50L8.62 13.50L4.87 3.82L3.96 3.82L0.17 13.50ZM2.63 9.58C3.79 6.54 4.13 5.61 4.40 4.91C4.65 5.64 4.98 6.55 6.16 9.58ZM15.68 13.50L15.68 12.64L10.88 12.64L10.88 3.82L10.00 3.82L10.00 13.50ZM17.53 7.21C17.60 5.94 17.61 4.70 17.63 3.46L16.84 3.46C16.87 4.70 16.91 5.94 16.97 7.21ZM18.63 12.43C19.28 13.17 20.40 13.66 21.64 13.66C23.37 13.66 24.40 12.91 24.40 11.62C24.40 10.47 23.74 9.95 22.33 9.66L21.42 9.48C20.19 9.24 19.94 8.89 19.94 8.25C19.94 7.71 20.36 7.13 21.63 7.13C22.46 7.13 23.13 7.38 23.70 7.88L24.23 7.20C23.58 6.58 22.69 6.33 21.70 6.33C19.91 6.33 19.05 7.29 19.05 8.32C19.05 9.41 19.67 9.98 20.93 10.23L21.80 10.42C23.17 10.70 23.55 11.06 23.55 11.69C23.55 12.32 23.07 12.88 21.73 12.88C20.78 12.88 19.85 12.53 19.22 11.77ZM28.90 13.50L32.23 13.50C33.19 13.50 34.01 13.31 34.44 13.08C35.29 12.60 35.73 11.70 35.73 10.71C35.73 9.45 35.04 8.61 33.70 8.37C34.68 7.98 35.14 7.20 35.14 6.17C35.14 5.25 34.69 4.48 33.78 4.12C33.35 3.93 32.73 3.82 31.84 3.82L28.90 3.82ZM29.79 8.06L29.79 4.68L31.85 4.68C32.69 4.68 33.24 4.80 33.56 4.98C33.96 5.22 34.24 5.68 34.24 6.34C34.24 6.85 34.05 7.39 33.56 7.74C33.29 7.94 32.77 8.06 32.24 8.06ZM29.79 12.64L29.79 8.89L32.35 8.89C32.90 8.89 33.38 8.95 33.71 9.06C34.37 9.28 34.79 9.91 34.79 10.67C34.79 11.52 34.45 12.04 33.89 12.36C33.59 12.53 32.91 12.64 32.23 12.64ZM38.32 13.50L38.32 6.51L37.48 6.51L37.48 13.50ZM38.37 5.11L38.37 3.82L37.42 3.82L37.42 5.11ZM41.40 13.50L41.40 10.74L42.50 9.69L45.26 13.50L46.28 13.50L43.11 9.09L45.81 6.51L44.67 6.51L41.40 9.72L41.40 3.82L40.56 3.82L40.56 13.50ZM53.19 11.38L52.36 11.20C52.11 12.15 51.27 12.88 50.01 12.88C48.97 12.88 47.49 12.32 47.47 10.19L53.21 10.19C53.21 7.62 52.00 6.33 49.94 6.33C48.08 6.33 46.58 7.71 46.58 9.97C46.58 12.19 47.81 13.66 49.98 13.66C51.69 13.66 52.85 12.71 53.19 11.38ZM47.47 9.51C47.61 7.91 48.68 7.11 49.92 7.11C51.59 7.11 52.22 8.19 52.32 9.51ZM56.80 11.96C57.64 12.98 59.01 13.66 60.65 13.66C62.89 13.66 64.22 12.70 64.22 10.96C64.22 9.60 63.59 8.78 61.63 8.34L60.13 8.01C58.67 7.67 58.31 7.11 58.31 6.26C58.31 5.46 58.77 4.47 60.66 4.47C61.85 4.47 62.83 4.94 63.42 5.61L64.04 4.94C63.10 3.95 61.99 3.64 60.73 3.64C58.53 3.64 57.36 4.68 57.36 6.34C57.36 7.57 57.99 8.48 59.56 8.83L61.01 9.17C62.90 9.59 63.25 10.21 63.25 11.06C63.25 11.87 62.76 12.82 60.72 12.82C59.35 12.82 58.16 12.22 57.47 11.33ZM66.79 13.50L66.79 9.90C66.79 9.16 66.89 8.58 67.17 8.13C67.45 7.69 68.12 7.14 69.09 7.14C69.78 7.14 70.22 7.34 70.50 7.64C70.78 7.95 70.98 8.47 70.98 9.45L70.98 13.50L71.85 13.50L71.85 9.35C71.85 8.23 71.67 7.62 71.37 7.21C70.95 6.64 70.28 6.34 69.33 6.34C68.10 6.34 67.09 7.03 66.79 7.90L66.79 3.82L65.95 3.82L65.95 13.50ZM80.57 10.01C80.57 7.70 79.07 6.33 77.20 6.33C75.26 6.33 73.64 7.71 73.64 9.98C73.64 12.26 75.04 13.66 77.17 13.66C79.03 13.66 80.57 12.26 80.57 10.01ZM79.70 10.00C79.70 11.87 78.48 12.87 77.17 12.87C75.71 12.87 74.52 11.87 74.52 9.95C74.52 8.05 75.80 7.13 77.18 7.13C78.50 7.13 79.70 8.06 79.70 10.00ZM83.09 16.03L83.09 12.21C83.50 13.05 84.35 13.66 85.69 13.66C87.58 13.66 88.94 12.35 88.94 9.98C88.94 7.69 87.70 6.33 85.86 6.33C84.42 6.33 83.44 7.10 83.09 7.95L83.09 6.51L82.25 6.51L82.25 16.03ZM83.08 9.95C83.08 8.16 84.20 7.08 85.67 7.08C87.05 7.08 88.07 8.13 88.07 10.00C88.07 11.91 86.97 12.88 85.62 12.88C84.18 12.88 83.08 12.05 83.08 9.95Z"></path></g><!----><g data-v-423bf9ae="" id="98d14a1a-64a6-46c3-9715-9d7233cd8c80" transform="matrix(2.3291516304016113,0,0,2.3291516304016113,129.5923309326172,-33.86459732055664)" stroke="none" fill="black"><path d="M54.604 27.275c-1.836 0-3.582.378-5.169 1.057l-.443-1.451.168-.054a.086.086 0 0 0 .055-.106l-.042-.128a.085.085 0 0 0-.104-.054l-.162.054-.656-2.146c-.292-.955-.586-1.911-.883-2.864l.106-.036a.084.084 0 0 0 .056-.103l-.042-.131a.087.087 0 0 0-.104-.054l-.106.034-.045.015-.474-1.338h3.498c.083 0 .184.003.296.012 1.345.102 2.341.153 3.227.153 1.026 0 1.904-.07 3.001-.213a.5.5 0 1 0-.129-.991c-1.985.259-3.168.269-6.021.054a4.862 4.862 0 0 0-.373-.015h-3.829a.493.493 0 0 0-.312.118l-.802.252.821 2.319-.097.031a.084.084 0 0 0-.053.104l.042.128a.084.084 0 0 0 .104.055l.105-.034.136.415h-20.17l-.167-.567-.11-.378-.056.017-1.057-3.653c-.029-.113-.098-.339-.646-.593l.119-.007c.211-.014.499-.131.655-.272l.751-.678c.225.006.391.018.432.042.146.081 1.038.103 1.37.103.331 0 .85.022.933.022s.331-.209-.062-.457c-.395-.25-.975-.746-2.695-.746h-5.101c-.249 0-.592-.041-.87-.124-.324-.099-1.492-.168-1.679-.084-.188.084-.153.282.165.58.215.2.591.559.803.664a7.84 7.84 0 0 0 1.371.467l.331.365a.924.924 0 0 0 .623.271h.029l1.043-.056a.951.951 0 0 0-.012.151c0 .44.228.812.839.827.206.003.514-.061.736-.159l.009.005 1.037 3.591-.104.03.111.377.365 1.243a.148.148 0 0 1-.014.025l-.297.538-.595 1.076-1.189 2.152-.938 1.674a13.091 13.091 0 0 0-6.149-1.529c-7.267 0-13.156 5.89-13.156 13.157 0 7.266 5.89 13.154 13.156 13.154 5.604 0 10.378-3.509 12.273-8.445l1.271.363c.223.142.461.266.72.358a3.638 3.638 0 0 0 4.654-2.194 3.63 3.63 0 0 0-.475-3.355l13.029-14.095.232.699-.165.052c-.044.013-.066.061-.054.105l.042.128a.081.081 0 0 0 .104.052l.168-.052.526 1.574c-4.196 2.198-7.064 6.588-7.064 11.656 0 7.266 5.891 13.154 13.156 13.154 7.269 0 13.157-5.889 13.157-13.154.003-7.267-5.886-13.157-13.154-13.157zM23.629 16.959c-.125-.209-.332-.346-.566-.346-.256 0-.479.164-.599.407l-1.136.058a.664.664 0 0 1-.455-.188l-.104-.112c.204.031.403.052.588.048.905-.013 1.264-.455 1.596-.518.332-.062.975-.062.975-.062.235 0 .869-.021 1.396-.022l-.549.495a.949.949 0 0 1-.501.207l-.645.033zm.187 10.474l1.195-2.149.598-1.074.009-.016 4.368 14.83-.721.007c-.448-4.223-2.898-7.837-6.378-9.905l.929-1.693zm4.135 11.609l-10.416.098 1.596-3.056 1.157-2.172 1.169-2.162c.267-.496.537-.988.807-1.481a11.836 11.836 0 0 1 5.687 8.773zm1.364 1.913c.1.017.199.061.286.161l.705.817c.003.004.004.009.007.012l-1.041-.157c.029-.273.033-.554.043-.833zm.57-.191c-.318-.162-.363-.495-.096-.736 0 0 .16-.135.409-.281l.409 1.388-.722-.371zm-.58-1.061c-.008-.141-.009-.283-.021-.423l.632-.006a3.61 3.61 0 0 0-.611.429zm-1.265.73c0 .392-.021.779-.059 1.162L17.51 40.018c-.045-.156-.097-.332-.21-.43l.103-.197 10.579-.099c.037.376.058.756.058 1.141zm-10.724.745l10.479 1.659c-.121.59-.299 1.158-.504 1.712l-10.43-2.977c.178-.101.339-.227.455-.394zm11.765 1.863l.895.142-.445.445c-.197.197-.438.197-.604.037.051-.209.112-.413.154-.624zm3.116-.322a.585.585 0 1 1 0 0zm.454-2.098l.065-.406c.055-.332.327-.471.621-.335l-.686.741zm-.358-.566l-.56.924c-.01.016-.025.025-.036.04l-.479-1.626c.436-.058.769-.005.769-.005.355.057.492.359.306.667zM16.185 52.288c-6.547 0-11.854-5.309-11.854-11.855 0-6.548 5.308-11.854 11.854-11.854 1.991 0 3.863.496 5.511 1.363-.276.493-.552.986-.832 1.477l-1.216 2.139-1.227 2.131c-.65 1.116-1.299 2.233-1.96 3.344l-.198-.002-.067-.002a1.367 1.367 0 0 0-.238 2.715l.524-.01.013-.005 10.711 3.057c-1.737 4.39-6.012 7.502-11.021 7.502zm12.507-7.785c.146.211.309.41.498.588l-.646-.184c.05-.135.103-.267.148-.404zm3.098.999s-.558.061-1.161-.157c-.604-.216-.995-.618-.995-.618-.251-.256-.187-.58.145-.722l.997-.421c.025-.011.053-.008.079-.016.214.169.479.276.771.289.014.021.033.035.045.057l.474.936c.162.32.001.613-.355.652zm2.835-2.222s-.113.546-.508 1.056a2.887 2.887 0 0 1-.894.754c-.321.158-.61-.002-.642-.359l-.093-1.078c-.003-.031.009-.061.011-.091.202-.158.356-.361.441-.609.046-.018.088-.043.138-.05l1.035-.163c.356-.054.584.188.512.54zm.053-1.49c.053.354-.191.58-.541.498l-1.054-.246c-.014-.003-.024-.013-.037-.017l1.201-1.299c.349.524.431 1.064.431 1.064zm-.947-2.338a3.612 3.612 0 0 0-.825-.438 3.594 3.594 0 0 0-1.842-.146L26.568 23.6h20.214l.396 1.187.028.083-13.475 14.582zm20.873 12.836c-6.547 0-11.854-5.309-11.854-11.855 0-4.492 2.498-8.398 6.18-10.409l.037.11.896 2.673.45 1.337.112.334.032.095.031.083.065.172c.092.228.186.448.286.668a17.26 17.26 0 0 0 2.288 3.65c.156.183.316.364.488.54.168.174.351.343.555.498a.263.263 0 1 0 .355-.39c-.01-.009-.023-.005-.035-.012l.004-.004c-.322-.286-.615-.646-.887-1.011a15.33 15.33 0 0 1-.769-1.144 18.61 18.61 0 0 1-1.265-2.449 12.147 12.147 0 0 1-.245-.639l-.055-.158-.027-.084-.021-.072-.104-.337-.409-1.348-.818-2.698-.075-.247a11.801 11.801 0 0 1 4.784-1.013c6.549 0 11.855 5.307 11.855 11.854.001 6.547-5.306 11.856-11.854 11.856z"></path></g><!----></svg>