<svg data-v-fde0c5aa="" xmlns="http://www.w3.org/2000/svg" viewBox="0 0 300 300" class="icon"><!----><defs data-v-fde0c5aa=""><linearGradient data-v-fde0c5aa="" gradientTransform="rotate(25)" id="cae252f9-3cfb-481b-92cc-77101040931c" x1="0%" y1="0%" x2="100%" y2="0%"><stop data-v-fde0c5aa="" offset="0%" stop-color="#0D7CE9" stop-opacity="1"></stop><stop data-v-fde0c5aa="" offset="100%" stop-color="#15CFF1" stop-opacity="1"></stop></linearGradient></defs><rect data-v-fde0c5aa="" fill="url(#cae252f9-3cfb-481b-92cc-77101040931c)" x="0" y="0" width="300px" height="300px" class="logo-background-square"></rect><!----><defs data-v-fde0c5aa=""><!----></defs><g data-v-fde0c5aa="" id="6985949c-8e02-409e-a692-02cc538eebf8" fill="#ffffff" stroke="none" transform="matrix(3.398733377456665,0,0,3.398733377456665,29.708596712276453,33.540155098423085)"><path d="M54.604 27.275c-1.836 0-3.582.378-5.169 1.057l-.443-1.451.168-.054a.086.086 0 0 0 .055-.106l-.042-.128a.085.085 0 0 0-.104-.054l-.162.054-.656-2.146c-.292-.955-.586-1.911-.883-2.864l.106-.036a.084.084 0 0 0 .056-.103l-.042-.131a.087.087 0 0 0-.104-.054l-.106.034-.045.015-.474-1.338h3.498c.083 0 .184.003.296.012 1.345.102 2.341.153 3.227.153 1.026 0 1.904-.07 3.001-.213a.5.5 0 1 0-.129-.991c-1.985.259-3.168.269-6.021.054a4.862 4.862 0 0 0-.373-.015h-3.829a.493.493 0 0 0-.312.118l-.802.252.821 2.319-.097.031a.084.084 0 0 0-.053.104l.042.128a.084.084 0 0 0 .104.055l.105-.034.136.415h-20.17l-.167-.567-.11-.378-.056.017-1.057-3.653c-.029-.113-.098-.339-.646-.593l.119-.007c.211-.014.499-.131.655-.272l.751-.678c.225.006.391.018.432.042.146.081 1.038.103 1.37.103.331 0 .85.022.933.022s.331-.209-.062-.457c-.395-.25-.975-.746-2.695-.746h-5.101c-.249 0-.592-.041-.87-.124-.324-.099-1.492-.168-1.679-.084-.188.084-.153.282.165.58.215.2.591.559.803.664a7.84 7.84 0 0 0 1.371.467l.331.365a.924.924 0 0 0 .623.271h.029l1.043-.056a.951.951 0 0 0-.012.151c0 .44.228.812.839.827.206.003.514-.061.736-.159l.009.005 1.037 3.591-.104.03.111.377.365 1.243a.148.148 0 0 1-.014.025l-.297.538-.595 1.076-1.189 2.152-.938 1.674a13.091 13.091 0 0 0-6.149-1.529c-7.267 0-13.156 5.89-13.156 13.157 0 7.266 5.89 13.154 13.156 13.154 5.604 0 10.378-3.509 12.273-8.445l1.271.363c.223.142.461.266.72.358a3.638 3.638 0 0 0 4.654-2.194 3.63 3.63 0 0 0-.475-3.355l13.029-14.095.232.699-.165.052c-.044.013-.066.061-.054.105l.042.128a.081.081 0 0 0 .104.052l.168-.052.526 1.574c-4.196 2.198-7.064 6.588-7.064 11.656 0 7.266 5.891 13.154 13.156 13.154 7.269 0 13.157-5.889 13.157-13.154.003-7.267-5.886-13.157-13.154-13.157zM23.629 16.959c-.125-.209-.332-.346-.566-.346-.256 0-.479.164-.599.407l-1.136.058a.664.664 0 0 1-.455-.188l-.104-.112c.204.031.403.052.588.048.905-.013 1.264-.455 1.596-.518.332-.062.975-.062.975-.062.235 0 .869-.021 1.396-.022l-.549.495a.949.949 0 0 1-.501.207l-.645.033zm.187 10.474l1.195-2.149.598-1.074.009-.016 4.368 14.83-.721.007c-.448-4.223-2.898-7.837-6.378-9.905l.929-1.693zm4.135 11.609l-10.416.098 1.596-3.056 1.157-2.172 1.169-2.162c.267-.496.537-.988.807-1.481a11.836 11.836 0 0 1 5.687 8.773zm1.364 1.913c.1.017.199.061.286.161l.705.817c.003.004.004.009.007.012l-1.041-.157c.029-.273.033-.554.043-.833zm.57-.191c-.318-.162-.363-.495-.096-.736 0 0 .16-.135.409-.281l.409 1.388-.722-.371zm-.58-1.061c-.008-.141-.009-.283-.021-.423l.632-.006a3.61 3.61 0 0 0-.611.429zm-1.265.73c0 .392-.021.779-.059 1.162L17.51 40.018c-.045-.156-.097-.332-.21-.43l.103-.197 10.579-.099c.037.376.058.756.058 1.141zm-10.724.745l10.479 1.659c-.121.59-.299 1.158-.504 1.712l-10.43-2.977c.178-.101.339-.227.455-.394zm11.765 1.863l.895.142-.445.445c-.197.197-.438.197-.604.037.051-.209.112-.413.154-.624zm3.116-.322a.585.585 0 1 1 0 0zm.454-2.098l.065-.406c.055-.332.327-.471.621-.335l-.686.741zm-.358-.566l-.56.924c-.01.016-.025.025-.036.04l-.479-1.626c.436-.058.769-.005.769-.005.355.057.492.359.306.667zM16.185 52.288c-6.547 0-11.854-5.309-11.854-11.855 0-6.548 5.308-11.854 11.854-11.854 1.991 0 3.863.496 5.511 1.363-.276.493-.552.986-.832 1.477l-1.216 2.139-1.227 2.131c-.65 1.116-1.299 2.233-1.96 3.344l-.198-.002-.067-.002a1.367 1.367 0 0 0-.238 2.715l.524-.01.013-.005 10.711 3.057c-1.737 4.39-6.012 7.502-11.021 7.502zm12.507-7.785c.146.211.309.41.498.588l-.646-.184c.05-.135.103-.267.148-.404zm3.098.999s-.558.061-1.161-.157c-.604-.216-.995-.618-.995-.618-.251-.256-.187-.58.145-.722l.997-.421c.025-.011.053-.008.079-.016.214.169.479.276.771.289.014.021.033.035.045.057l.474.936c.162.32.001.613-.355.652zm2.835-2.222s-.113.546-.508 1.056a2.887 2.887 0 0 1-.894.754c-.321.158-.61-.002-.642-.359l-.093-1.078c-.003-.031.009-.061.011-.091.202-.158.356-.361.441-.609.046-.018.088-.043.138-.05l1.035-.163c.356-.054.584.188.512.54zm.053-1.49c.053.354-.191.58-.541.498l-1.054-.246c-.014-.003-.024-.013-.037-.017l1.201-1.299c.349.524.431 1.064.431 1.064zm-.947-2.338a3.612 3.612 0 0 0-.825-.438 3.594 3.594 0 0 0-1.842-.146L26.568 23.6h20.214l.396 1.187.028.083-13.475 14.582zm20.873 12.836c-6.547 0-11.854-5.309-11.854-11.855 0-4.492 2.498-8.398 6.18-10.409l.037.11.896 2.673.45 1.337.112.334.032.095.031.083.065.172c.092.228.186.448.286.668a17.26 17.26 0 0 0 2.288 3.65c.156.183.316.364.488.54.168.174.351.343.555.498a.263.263 0 1 0 .355-.39c-.01-.009-.023-.005-.035-.012l.004-.004c-.322-.286-.615-.646-.887-1.011a15.33 15.33 0 0 1-.769-1.144 18.61 18.61 0 0 1-1.265-2.449 12.147 12.147 0 0 1-.245-.639l-.055-.158-.027-.084-.021-.072-.104-.337-.409-1.348-.818-2.698-.075-.247a11.801 11.801 0 0 1 4.784-1.013c6.549 0 11.855 5.307 11.855 11.854.001 6.547-5.306 11.856-11.854 11.856z"></path></g><!----></svg>